<?xml version="1.0" standalone="no"?>
<!DOCTYPE svg PUBLIC "-//W3C//DTD SVG 20010904//EN" "http://www.w3.org/TR/2001/REC-SVG-20010904/DTD/svg10.dtd">
<!-- Created using Krita: https://krita.org -->
<svg xmlns="http://www.w3.org/2000/svg" 
    xmlns:xlink="http://www.w3.org/1999/xlink"
    xmlns:krita="http://krita.org/namespaces/svg/krita"
    xmlns:sodipodi="http://sodipodi.sourceforge.net/DTD/sodipodi-0.dtd"
    width="64.8pt"
    height="100.8pt"
    viewBox="0 0 64.8 100.8">
<defs>
  <linearGradient id="gradient0" gradientUnits="objectBoundingBox" x1="0.490100166349735" y1="0.280136986301374" x2="0.531336391003655" y2="0.996061643835617" spreadMethod="pad">
   <stop stop-color="#414042" offset="0" stop-opacity="1"/>
   <stop stop-color="#918d90" offset="0.100000001490116" stop-opacity="1"/>
   <stop stop-color="#231f20" offset="0.194600000977516" stop-opacity="1"/>
   <stop stop-color="#918d90" offset="0.300000011920929" stop-opacity="1"/>
   <stop stop-color="#231f20" offset="0.400000005960464" stop-opacity="1"/>
   <stop stop-color="#918d90" offset="0.5" stop-opacity="1"/>
   <stop stop-color="#231f20" offset="0.600000023841858" stop-opacity="1"/>
   <stop stop-color="#918d90" offset="0.699999988079071" stop-opacity="1"/>
   <stop stop-color="#635f61" offset="0.812399983406067" stop-opacity="1"/>
   <stop stop-color="#353132" offset="0.937399983406067" stop-opacity="1"/>
   <stop stop-color="#231f20" offset="1" stop-opacity="1"/>
  </linearGradient>
  <linearGradient id="gradient1" gradientUnits="objectBoundingBox" x1="0.500927357032458" y1="0.0148148148148124" x2="0.500927357032458" y2="1.04444444444445" spreadMethod="pad">
   <stop stop-color="#231f20" offset="0" stop-opacity="1"/>
   <stop stop-color="#808285" offset="0.0752689987421036" stop-opacity="1"/>
   <stop stop-color="#6d6e71" offset="0.17739999294281" stop-opacity="1"/>
   <stop stop-color="#939598" offset="0.215100005269051" stop-opacity="1"/>
   <stop stop-color="#939598" offset="0.306499987840652" stop-opacity="1"/>
   <stop stop-color="#808285" offset="0.521499991416931" stop-opacity="1"/>
   <stop stop-color="#939598" offset="0.720399975776672" stop-opacity="1"/>
   <stop stop-color="#939598" offset="0.838699996471405" stop-opacity="1"/>
   <stop stop-color="#6d6e71" offset="0.887099981307983" stop-opacity="1"/>
   <stop stop-color="#58595b" offset="0.951600015163422" stop-opacity="1"/>
   <stop stop-color="#231f20" offset="1" stop-opacity="1"/>
  </linearGradient>
  <linearGradient id="gradient2" gradientUnits="objectBoundingBox" x1="-0.00427634922336928" y1="0.503082191780823" x2="0.996236642287106" y2="0.503082191780823" spreadMethod="pad">
   <stop stop-color="#717369" offset="0" stop-opacity="1"/>
   <stop stop-color="#918d90" offset="0.0860219970345497" stop-opacity="1"/>
   <stop stop-color="#72786d" offset="0.172000005841255" stop-opacity="1"/>
   <stop stop-color="#434747" offset="0.268799990415573" stop-opacity="1"/>
   <stop stop-color="#898989" offset="0.38170000910759" stop-opacity="1"/>
   <stop stop-color="#ebe8e4" offset="0.510800004005432" stop-opacity="1"/>
   <stop stop-color="#c1c1c2" offset="0.731199979782104" stop-opacity="1"/>
   <stop stop-color="#a69da6" offset="0.838699996471405" stop-opacity="1"/>
   <stop stop-color="#a2a39a" offset="1" stop-opacity="1"/>
  </linearGradient>
 </defs>
<path id="shape0" transform="matrix(0.357539976217378 0 0 0.357539976217378 6.199889843782 5.3678384695424)" fill="#ffd3ad" stroke-opacity="0" stroke="#000000" stroke-width="0" stroke-linecap="square" stroke-linejoin="bevel" d="M145.379 59C141.479 35.7 127.079 16.9 105.579 7.2C84.3787 -2.4 62.1787 -2.4 40.9787 7.2C19.4787 16.9 5.07866 35.7 1.17866 59C-1.22134 73.6 -0.0213511 88.9 5.37866 102.7C7.97866 109.3 11.5787 115.3 14.8787 121.5C18.3787 128.2 22.0787 134.7 25.8787 141.2C30.5787 149.2 33.1787 158.3 33.3787 167.5C33.3787 167.5 33.8787 175.3 41.1787 184.1L73.2787 184.6L105.379 184.1C112.679 175.3 113.179 167.5 113.179 167.5C113.379 158.2 115.979 149.2 120.679 141.2C124.479 134.7 128.179 128.1 131.679 121.5C134.979 115.3 138.579 109.2 141.179 102.7C146.579 88.8 147.779 73.6 145.379 59Z" sodipodi:nodetypes="cccccccccccccccc"/><path id="shape1" transform="matrix(0.357539976217378 0 0 0.357539976217378 24.9273507117018 91.3919567474435)" fill="#000000" stroke-opacity="0" stroke="#000000" stroke-width="0" stroke-linecap="square" stroke-linejoin="bevel" d="M40.8 0.5C40.8 0.5 40.6 0.6 40.4 0.9C40.3 0.9 40.3 1 40.2 1.1C38.4 2.7 33.6 7.2 33.1 8.4C32.5 10 31.5 10.8 30.2 10.8L20.4 11.3L10.6 10.8C9.3 10.8 8.3 9.9 7.7 8.4C7.3 7.3 3.4 3.6 1.3 1.7C0.5 1 0 0.5 0 0.5L20.4 0Z" sodipodi:nodetypes="cccccccccccc"/><path id="shape2" transform="matrix(0.357539976217378 0 0 0.357539976217378 20.7441329899586 71.1551940935399)" fill="url(#gradient0)" stroke-opacity="0" stroke="#000000" stroke-width="0" stroke-linecap="square" stroke-linejoin="bevel" d="M62.8 35C63.5 35.7 64.3 36.2 64.3 36.2L64.4 36.3C64.8 36.7 65.8 38 64.1 39.6C63.9 39.8 63.7 39.9 63.5 40.1C63.3 40.2 63.2 40.4 63 40.5C60.9 42.6 63.4 44.6 63.4 44.6C63.4 44.6 66.6 46.3 62.1 49.1L53.2 56.8C52.9 57.1 52.5 57.3 52.1 57.4C52 57.4 52 57.5 51.9 57.6L51.1 57.6L31.9 58.4L13.1 58.2C12.7 58.2 12.4 58 12.1 57.8C11.2 56.9 8.8 54.6 6.8 52.8C6.6 52.6 6.4 52.5 6.2 52.3C5.8 52 5.4 51.7 5.1 51.4C4.8 51.2 4.5 50.9 4.3 50.7C2.5 48.9 2.9 47.6 2.9 47.6C4.2 44.1 1 43.5 1 43.5C0.8 43.3 0.6 43.1 0.5 42.9C0.4 42.8 0.4 42.8 0.4 42.7C0.4 42.6 0.3 42.6 0.3 42.5C0.1 42.1 0.1 41.7 0.2 41.3C0.3 41.1 0.3 40.9 0.4 40.7C0.5 40.6 0.5 40.5 0.6 40.4C0.6 40.4 0.6 40.3 0.7 40.3C1.2 40 1.7 39.6 2 39.3L2.2 39.1C2.8 38.4 2.9 37.8 2.9 37.8C2.9 37.8 3 37.4 2.6 36.5C2.6 36.4 2.5 36.4 2.5 36.3C2.5 36.3 2.5 36.2 2.4 36.2C2.3 36.1 2.3 36 2.2 35.8C2.1 35.7 2 35.5 1.9 35.4C1.7 35.1 1.4 34.7 1 34.3C0.9 34.2 0.8 34 0.7 33.9C-0.1 32.7 0.6 31.6 1.3 30.9L1.4 30.8C1.8 30.4 2.3 30.2 2.3 30.2C2.3 30.2 3.5 28 2 26.5L1.6 26.1C1.3 25.9 1.1 25.7 0.9 25.5C-0.3 24.2 0.5 22.7 0.5 22.7C0.7 22.5 0.9 22.4 1.1 22.2L1.3 22C1.5 21.8 1.7 21.6 1.9 21.5C2 21.4 2 21.4 2 21.3C2.3 20.9 2.4 20.7 2.5 20.5C2.6 20.3 2.5 20.2 2.5 20.2C2.5 20.2 2.6 20 2.6 19.8C2.8 19 3 17.3 1.4 16.4C-0.7 15.2 1.4 5.9 1.4 5.9C1.3 5.8 1.3 5.7 1.2 5.6C1.2 5.6 1.2 5.5 1.1 5.5C1.1 5.4 1.1 5.4 1 5.3L1 5.2C0.9 4.9 0.8 4.6 0.7 4.4L0.7 4.2C0.7 4.1 0.8 4.1 0.8 4C1 3.5 0.8 2.4 0.5 1.6C0.5 1.5 0.4 1.4 0.4 1.3C0.4 1.2 0.3 1 0.3 0.9C0.1 0.4 0 0.1 0 0L64.6 0C64.6 0 64.5 0.2 64.4 0.5C64.4 0.6 64.4 0.6 64.3 0.7C64.2 1 64 1.4 63.9 1.8C63.9 1.9 63.9 2 63.8 2.1C63.8 2.2 63.7 2.3 63.7 2.5L63.7 2.7C63.6 3 63.6 3.3 63.6 3.6C63.6 4 63.6 4.4 63.7 4.8C63.7 4.9 63.8 5 63.8 5.1L63.8 6C63.8 6.1 63.8 6.2 63.7 6.3L63.6 6.4C63.2 6.6 65 9.3 65 9.3C65 9.3 65 9.3 65 9.3C65.2 9.5 66.4 11.2 64 13.1C63 13.9 62.8 14.8 63 15.6C63 15.8 63.1 16.1 63.2 16.3C63.3 16.4 63.3 16.6 63.4 16.7C63.6 17 63.8 17.3 63.9 17.4L64 17.5C64 17.5 64 17.5 64 17.5C64 17.5 64.1 17.6 64.3 17.7C64.4 17.8 64.5 17.9 64.6 18.1C65.1 18.8 65.7 20 64.4 21.2C64.1 21.5 63.8 21.7 63.4 21.9C63.1 22.1 62.9 22.3 62.7 22.5L62.6 22.6C61.6 23.7 62.4 25 63.3 25.8C64 26.4 64.7 26.9 64.7 26.9C64.7 26.9 64.7 26.9 64.7 26.9L64.7 27C64.9 27.2 65.4 27.9 65.2 28.9C65.2 29 65.1 29.2 65 29.3C65 29.4 64.9 29.5 64.8 29.6C64.5 30.1 64 30.5 63.2 31C61.2 32.7 61.9 34 62.8 35Z" sodipodi:nodetypes="cccccccccccccccccccccccccccccccccccccccccccccccccccccccccccccccccccccccccccccccccccccccccccccccccccccc"/><g id="group0" transform="matrix(0.357539976217378 0 0 0.357539976217378 -20.9450282369877 -100.106454514584)" opacity="0.33" fill="none">
  <path id="shape3" transform="translate(117.3, 491.3)" fill="#6d6e71" stroke-opacity="0" stroke="#000000" stroke-width="0" stroke-linecap="square" stroke-linejoin="bevel" d="M0 4.1C0 4.1 4 3.7 9.9 3.2C12.9 3 16.4 2.7 20.1 2.4C23.8 2.1 27.8 1.9 31.8 1.6C35.8 1.4 39.8 1.1 43.5 0.9C47.2 0.7 50.7 0.5 53.7 0.4C59.7 0.1 63.7 0 63.7 0C63.7 0 59.7 0.4 53.8 0.9C50.8 1.1 47.3 1.4 43.6 1.7C39.9 2 35.9 2.2 31.9 2.5C27.9 2.7 23.9 3 20.2 3.2C16.5 3.4 13 3.6 10 3.7C4 3.9 0 4.1 0 4.1Z" sodipodi:nodetypes="ccccccccccccc"/>
 </g><path id="shape4" transform="matrix(0.357539976217378 0 0 0.357539976217378 20.6368709970933 71.2267020887835)" fill="url(#gradient1)" stroke-opacity="0" stroke="#000000" stroke-width="0" stroke-linecap="square" stroke-linejoin="bevel" d="M64.7 0.2C64.4 0.8 63.3 3.4 63.9 5.1L63.9 5.4L1.2 5.4C0.9 4.9 0.7 4.2 0.7 4.2C1.4 3.4 0 0 0 0L64.7 0Z" sodipodi:nodetypes="cccccccc"/><path id="shape5" transform="matrix(0.357539976217378 0 0 0.357539976217378 22.2815548876933 88.2813589543523)" opacity="0.33" fill="none" stroke="#6d6e71" stroke-width="0.8233" stroke-linecap="butt" stroke-linejoin="miter" stroke-miterlimit="10" d="M0 2.9C0.8 3.6 57.1 2.5 59.4 0" sodipodi:nodetypes="cc"/><path id="shape6" transform="matrix(0.357539976217378 0 0 0.357539976217378 20.7798869875802 71.1551940935399)" opacity="0.4" fill="url(#gradient2)" stroke-opacity="0" stroke="#000000" stroke-width="0" stroke-linecap="square" stroke-linejoin="bevel" d="M62.7 35C63.4 35.7 64.2 36.2 64.2 36.2C64.2 36.2 64.2 36.2 64.3 36.3C64.7 36.7 65.7 38 64 39.6C63.8 39.8 63.6 39.9 63.4 40.1C63.2 40.2 63.1 40.4 62.9 40.5C60.8 42.6 63.3 44.6 63.3 44.6C63.3 44.6 66.5 46.3 62 49.1L53.1 56.8C52.8 57.1 52.4 57.3 52 57.4C51.7 57.5 51.3 57.6 51 57.6L31.8 58.4L13 58.2C12.6 58.2 12.3 58 12 57.8C11.1 56.9 8.7 54.6 6.7 52.8C6.5 52.6 6.3 52.5 6.1 52.3C5.7 52 5.3 51.7 5 51.4C4.7 51.2 4.4 50.9 4.2 50.7C2.4 48.9 2.8 47.6 2.8 47.6C4.1 44.1 0.9 43.5 0.9 43.5C0.7 43.3 0.5 43.1 0.4 42.9C0.3 42.8 0.3 42.8 0.3 42.7C0.3 42.6 0.2 42.6 0.2 42.5C1.42109e-14 42.1 1.42109e-14 41.7 0.1 41.3C0.2 41.1 0.2 40.9 0.3 40.7C0.4 40.6 0.4 40.5 0.5 40.4C0.5 40.4 0.5 40.3 0.6 40.3C1.1 40 1.6 39.6 1.9 39.3L2.1 39.1C2.7 38.4 2.8 37.8 2.8 37.8C2.8 37.8 2.9 37.4 2.5 36.5C2.5 36.4 2.4 36.4 2.4 36.3C2.4 36.3 2.4 36.2 2.3 36.2C2.2 36.1 2.2 36 2.1 35.8C2 35.7 1.9 35.5 1.8 35.4C1.6 35.1 1.2 34.7 0.9 34.3C0.8 34.2 0.7 34 0.6 33.9C-0.2 32.7 0.5 31.6 1.2 30.9L1.3 30.8C1.7 30.4 2.2 30.2 2.2 30.2C2.2 30.2 3.4 28 1.9 26.5L1.5 26.1C1.2 25.9 1 25.7 0.8 25.5C-0.4 24.2 0.4 22.7 0.4 22.7C0.6 22.5 0.8 22.4 1 22.2L1.2 22C1.4 21.8 1.6 21.6 1.8 21.5C1.9 21.4 1.9 21.4 1.9 21.3C2.2 20.9 2.3 20.7 2.4 20.5C2.5 20.3 2.4 20.2 2.4 20.2C2.4 20.2 2.5 20 2.5 19.8C2.7 19 2.9 17.3 1.3 16.4C-0.8 15.2 1.3 5.9 1.3 5.9C1.2 5.8 1.2 5.7 1.1 5.6C1.1 5.6 1.1 5.5 1 5.5C1 5.4 1 5.4 0.9 5.3L0.9 5.2C0.8 4.9 0.7 4.6 0.6 4.4L0.6 4.2C0.6 4.1 0.7 4.1 0.7 4C0.7 3.9 0.7 3.9 0.8 3.8C0.9 3.2 0.7 2.3 0.5 1.6C0.5 1.5 0.4 1.4 0.4 1.3C0.4 1.2 0.3 1 0.3 0.9C0.1 0.4 1.42109e-14 0.1 1.42109e-14 0L64.6 0C64.6 0 64.5 0.2 64.4 0.5C64.4 0.6 64.4 0.6 64.3 0.7C64.2 1 64 1.4 63.9 1.8C63.9 1.9 63.9 2 63.8 2.1C63.8 2.2 63.7 2.3 63.7 2.5L63.7 2.7C63.6 3 63.6 3.3 63.6 3.6C63.6 4 63.6 4.4 63.7 4.8C63.7 4.9 63.8 5 63.8 5.1L63.8 5.2C63.8 5.4 63.9 5.7 63.8 6C63.8 6.1 63.8 6.2 63.7 6.3L63.6 6.4C63.2 6.6 65 9.3 65 9.3C65 9.3 65 9.3 65 9.3C65.2 9.5 66.4 11.2 64 13.1C63 13.9 62.8 14.8 63 15.6C63 15.8 63.1 16.1 63.2 16.3C63.3 16.4 63.3 16.6 63.4 16.7C63.6 17 63.8 17.3 63.9 17.4L64 17.5C64 17.5 64 17.5 64 17.5C64 17.5 64.1 17.6 64.3 17.7C64.4 17.8 64.5 17.9 64.6 18.1C65.1 18.8 65.7 20 64.4 21.2C64.1 21.5 63.8 21.7 63.4 21.9C63.1 22.1 62.9 22.3 62.7 22.5L62.6 22.6C61.6 23.7 62.4 25 63.3 25.8C64 26.4 64.7 26.9 64.7 26.9C64.7 26.9 64.7 26.9 64.7 26.9L64.7 27C64.9 27.2 65.6 28.2 65 29.3C64.9 29.4 64.9 29.5 64.8 29.6C64.5 30.1 64 30.5 63.2 31C61.1 32.7 61.8 34 62.7 35Z" sodipodi:nodetypes="cccccccccccccccccccccccccccccccccccccccccccccccccccccccccccccccccccccccccccccccccccccccccccccccccccccc"/>
</svg>
